<svg width="16" height="17" viewBox="0 0 16 17" fill="none" xmlns="http://www.w3.org/2000/svg">
<rect width="16" height="16" transform="translate(0 0.5)" fill="white" fill-opacity="0.01"/>
<path fill-rule="evenodd" clip-rule="evenodd" d="M7.77448 1.35008C7.91743 1.28337 8.0826 1.28337 8.22555 1.35008L14.6255 4.33675C14.8133 4.42438 14.9333 4.61284 14.9333 4.82005V12.18C14.9333 12.3873 14.8133 12.5757 14.6255 12.6634L8.22555 15.65C8.0826 15.7167 7.91743 15.7167 7.77448 15.65L1.37448 12.6634C1.1867 12.5757 1.06668 12.3873 1.06668 12.18V4.82005C1.06668 4.61284 1.1867 4.42438 1.37448 4.33675L7.77448 1.35008ZM2.13335 5.62621L7.46668 7.89288V14.3293L2.13335 11.8404V5.62621ZM8.53335 14.3293L13.8667 11.8404V5.62621L8.53335 7.89288V14.3293ZM8.00001 6.96055L13.09 4.79729L8.00001 2.42193L2.90998 4.79729L8.00001 6.96055Z" fill="#1C2024"/>
</svg>
