<svg width="20" height="21" viewBox="0 0 20 21" fill="none" xmlns="http://www.w3.org/2000/svg">
<rect width="20" height="20" transform="translate(0 0.5)" fill="white" fill-opacity="0.01"/>
<path fill-rule="evenodd" clip-rule="evenodd" d="M9.43902 0.796337C9.75034 0.490088 10.2497 0.490088 10.5611 0.796337L19.5611 9.64969C19.876 9.95953 19.8801 10.466 19.5704 10.781C19.2605 11.096 18.754 11.1002 18.4391 10.7903L17.3333 9.70268V17.1667C17.3333 17.5348 17.0349 17.8333 16.6667 17.8333H3.33337C2.96518 17.8333 2.6667 17.5348 2.6667 17.1667V9.70268L1.56106 10.7903C1.24609 11.1002 0.739573 11.096 0.42973 10.781C0.119887 10.466 0.124048 9.95953 0.439023 9.64969L9.43902 0.796337ZM10 2.48884L16 8.39108V16.5H13.3333V11.8333C13.3333 11.4651 13.0349 11.1667 12.6667 11.1667H8.6667C8.29852 11.1667 8.00004 11.4651 8.00004 11.8333V16.5H4.00004V8.39108L10 2.48884ZM9.33337 16.5H12V12.5H9.33337V16.5Z" fill="#1C2024"/>
</svg>
