<svg width="20" height="21" viewBox="0 0 20 21" fill="none" xmlns="http://www.w3.org/2000/svg">
<path fill-rule="evenodd" clip-rule="evenodd" d="M5 3.5C4.46957 3.5 3.96086 3.71071 3.58579 4.08579C3.21071 4.46086 3 4.96957 3 5.5V15.5C3 16.0304 3.21071 16.5391 3.58579 16.9142C3.96086 17.2893 4.46957 17.5 5 17.5H15C15.5304 17.5 16.0391 17.2893 16.4142 16.9142C16.7893 16.5391 17 16.0304 17 15.5V5.5C17 4.96957 16.7893 4.46086 16.4142 4.08579C16.0391 3.71071 15.5304 3.5 15 3.5H5ZM5 5.5H15V12.5H13L12 14.5H8L7 12.5H5V5.5Z" fill="#3F3F46"/>
</svg>
