<svg width="16" height="17" viewBox="0 0 16 17" fill="none" xmlns="http://www.w3.org/2000/svg">
<rect width="16" height="16" transform="translate(0 0.5)" fill="white" fill-opacity="0.01"/>
<path fill-rule="evenodd" clip-rule="evenodd" d="M7.9999 1.43535C4.09837 1.43535 0.935547 4.59818 0.935547 8.4997C0.935547 12.4012 4.09837 15.5641 7.9999 15.5641C11.9014 15.5641 15.0642 12.4012 15.0642 8.4997C15.0642 4.59818 11.9014 1.43535 7.9999 1.43535ZM1.94887 8.4997C1.94887 5.15782 4.65802 2.44868 7.9999 2.44868C11.3418 2.44868 14.0509 5.15782 14.0509 8.4997C14.0509 11.8415 11.3418 14.5508 7.9999 14.5508C4.65802 14.5508 1.94887 11.8415 1.94887 8.4997ZM8.79991 5.29999C8.79991 5.74181 8.44174 6.09999 7.99991 6.09999C7.55809 6.09999 7.19991 5.74181 7.19991 5.29999C7.19991 4.85815 7.55809 4.49999 7.99991 4.49999C8.44174 4.49999 8.79991 4.85815 8.79991 5.29999ZM6.40003 6.89999H6.93336H8.00003C8.29459 6.89999 8.53336 7.13876 8.53336 7.43332V11.1667H9.0667H9.60003V12.2333H9.0667H8.00003H6.93336H6.40003V11.1667H6.93336H7.4667V7.96666H6.93336H6.40003V6.89999Z" fill="#1C2024"/>
</svg>
