<svg width="16" height="17" viewBox="0 0 16 17" fill="none" xmlns="http://www.w3.org/2000/svg">
<rect width="16" height="16" transform="translate(0 0.695366)" fill="white" fill-opacity="0.01"/>
<path fill-rule="evenodd" clip-rule="evenodd" d="M12.9561 1.91824C13.1644 1.70996 13.5022 1.70996 13.7104 1.91824L15.8437 4.05158C16.052 4.25986 16.052 4.59754 15.8437 4.80582L11.6383 9.01129C11.5572 9.09236 11.4635 9.15982 11.361 9.2111L7.1718 11.3057C6.96646 11.4084 6.71848 11.3681 6.55616 11.2058C6.39383 11.0435 6.35359 10.7955 6.45626 10.5902L8.55088 6.40093C8.60215 6.29838 8.66962 6.20477 8.75069 6.12371L12.9561 1.91824ZM13.3333 3.04961L9.50494 6.87796L8.39747 9.09288L8.6691 9.36451L10.884 8.25704L14.7124 4.4287L13.3333 3.04961ZM10.6666 2.8287L9.59995 3.89536H5.22663C4.76979 3.89536 4.45923 3.89578 4.21919 3.91539C3.98536 3.93449 3.86579 3.96912 3.78238 4.01162C3.58167 4.11389 3.4185 4.27707 3.31622 4.47778C3.27373 4.56119 3.2391 4.68076 3.22 4.91459C3.20038 5.15463 3.19997 5.46519 3.19997 5.92203V12.5354C3.19997 12.9922 3.20038 13.3027 3.22 13.5428C3.2391 13.7766 3.27373 13.8962 3.31622 13.9796C3.4185 14.1804 3.58167 14.3435 3.78238 14.4458C3.86579 14.4883 3.98536 14.5229 4.21919 14.542C4.45923 14.5616 4.76979 14.562 5.22663 14.562H11.84C12.2968 14.562 12.6073 14.5616 12.8474 14.542C13.0812 14.5229 13.2008 14.4883 13.2842 14.4458C13.485 14.3435 13.6481 14.1804 13.7504 13.9796C13.7929 13.8962 13.8275 13.7766 13.8466 13.5428C13.8662 13.3027 13.8666 12.9922 13.8666 12.5354V8.16201L14.9333 7.09534V12.5354V12.5574C14.9333 12.9867 14.9333 13.341 14.9097 13.6297C14.8852 13.9295 14.8327 14.205 14.7008 14.4639C14.4963 14.8653 14.1699 15.1917 13.7685 15.3962C13.5096 15.5281 13.2341 15.5806 12.9343 15.6051C12.6456 15.6287 12.2913 15.6287 11.862 15.6287H11.84H5.22663H5.2046C4.77529 15.6287 4.42096 15.6287 4.13233 15.6051C3.83254 15.5806 3.55697 15.5281 3.29812 15.3962C2.89671 15.1917 2.57035 14.8653 2.36582 14.4639C2.23393 14.205 2.18137 13.9295 2.15687 13.6297C2.13329 13.341 2.13329 12.9867 2.1333 12.5574V12.5354V5.92203V5.9C2.13329 5.47071 2.13329 5.11636 2.15687 4.82773C2.18137 4.52794 2.23393 4.25237 2.36582 3.99352C2.57035 3.5921 2.89671 3.26574 3.29812 3.06122C3.55697 2.92933 3.83254 2.87676 4.13233 2.85227C4.42096 2.82869 4.77527 2.82869 5.20458 2.8287H5.22663H10.6666Z" fill="#1C2024"/>
</svg>
