<svg width="14" height="16" viewBox="0 0 14 16" fill="none" xmlns="http://www.w3.org/2000/svg">
<rect width="16" height="16" transform="translate(-1)" fill="white" fill-opacity="0.01"/>
<path fill-rule="evenodd" clip-rule="evenodd" d="M9.66667 6.93336C9.66667 8.99523 7.9952 10.6667 5.93333 10.6667C3.87146 10.6667 2.2 8.99523 2.2 6.93336C2.2 4.8715 3.87146 3.20003 5.93333 3.20003C7.9952 3.20003 9.66667 4.8715 9.66667 6.93336ZM8.92943 10.6837C8.10828 11.3406 7.06668 11.7334 5.93333 11.7334C3.28237 11.7334 1.13333 9.58433 1.13333 6.93336C1.13333 4.2824 3.28237 2.13336 5.93333 2.13336C8.5843 2.13336 10.7333 4.2824 10.7333 6.93336C10.7333 8.06671 10.3406 9.10831 9.68362 9.92946L12.7105 12.9562C12.9187 13.1645 12.9187 13.5022 12.7105 13.7105C12.5022 13.9187 12.1645 13.9187 11.9562 13.7105L8.92943 10.6837Z" fill="#1C2024"/>
</svg>
