<svg width="16" height="17" viewBox="0 0 16 17" fill="none" xmlns="http://www.w3.org/2000/svg">
<rect width="16" height="16" transform="translate(0 0.695366)" fill="white" fill-opacity="0.01"/>
<path fill-rule="evenodd" clip-rule="evenodd" d="M5.86662 1.76203C5.57207 1.76203 5.33328 2.00082 5.33328 2.29536C5.33328 2.58991 5.57207 2.8287 5.86662 2.8287H10.1333C10.4278 2.8287 10.6666 2.58991 10.6666 2.29536C10.6666 2.00082 10.4278 1.76203 10.1333 1.76203H5.86662ZM3.19995 4.4287C3.19995 4.13415 3.43874 3.89536 3.73328 3.89536H5.33328H10.6666H12.2666C12.5611 3.89536 12.8 4.13415 12.8 4.4287C12.8 4.72325 12.5611 4.96203 12.2666 4.96203H11.7333V13.4954C11.7333 14.0845 11.2557 14.562 10.6666 14.562H5.33328C4.74419 14.562 4.26662 14.0845 4.26662 13.4954V4.96203H3.73328C3.43874 4.96203 3.19995 4.72325 3.19995 4.4287ZM5.33328 4.96203H10.6666V13.4954H5.33328V4.96203Z" fill="#FF3B30"/>
</svg>
