<svg width="16" height="17" viewBox="0 0 16 17" fill="none" xmlns="http://www.w3.org/2000/svg">
<rect width="16" height="16" transform="translate(0 0.5)" fill="white" fill-opacity="0.01"/>
<path fill-rule="evenodd" clip-rule="evenodd" d="M9.00784 1.14935C8.5528 0.38585 7.4471 0.38585 6.99205 1.14935L0.171874 12.5926C-0.294261 13.3747 0.269288 14.3667 1.17977 14.3667H14.8201C15.7306 14.3667 16.2941 13.3747 15.828 12.5926L9.00784 1.14935ZM7.90832 1.69544C7.94969 1.62604 8.05021 1.62604 8.09158 1.69544L14.9117 13.1387C14.9542 13.2098 14.9029 13.3 14.8201 13.3H1.17977C1.09701 13.3 1.04577 13.2098 1.08814 13.1387L7.90832 1.69544ZM7.28198 5.28518C7.26631 4.87785 7.5923 4.53907 7.99995 4.53907C8.4076 4.53907 8.73358 4.87785 8.71792 5.28519L8.55377 9.55281C8.54233 9.8504 8.29776 10.0857 7.99995 10.0857C7.70214 10.0857 7.45756 9.8504 7.44612 9.55281L7.28198 5.28518ZM8.79983 11.6744C8.79983 12.1162 8.44166 12.4744 7.99983 12.4744C7.558 12.4744 7.19983 12.1162 7.19983 11.6744C7.19983 11.2326 7.558 10.8744 7.99983 10.8744C8.44166 10.8744 8.79983 11.2326 8.79983 11.6744Z" fill="#1C2024"/>
</svg>
